:FULLY-SPECIFIED
:DEGREES
2097
root 4.53354 16.565 -2.23705 -69.0027 -87.9026 84.9279
lowerback -5.99319 -0.660789 2.04365
upperback -4.14876 -1.08095 0.12017
thorax -0.946326 -0.627306 -1.0755
lowerneck -14.4997 -1.46631 0.779313
upperneck 21.5298 -2.87268 1.53407
head 9.17321 -1.21405 0.0307756
rclavicle -6.36111e-015 1.07344e-014
rhumerus -39.0665 -7.576 -79.0948
rradius 31.793
rwrist 18.5349
rhand -24.8983 -4.55425
rfingers 7.12502
rthumb 1.6098 -34.5279
lclavicle -6.36111e-015 1.07344e-014
lhumerus -37.2363 -10.5067 90.4486
lradius 40.9032
lwrist -3.85804
lhand -36.3016 -2.2167
lfingers 7.12502
lthumb -9.40087 27.5537
rfemur -32.8719 10.2293 19.3752
rtibia 23.4076
rfoot -5.88056 -19.1385
rtoes -3.57962
lfemur -22.8509 -0.269092 -24.3953
ltibia 57.6384
lfoot -1.45228 4.34698
ltoes -19.1628
2098
root 4.53524 16.5585 -2.25509 -63.2282 -88.0504 78.9907
lowerback -5.82544 -0.548636 2.20484
upperback -4.05551 -0.930627 0.131028
thorax -0.940852 -0.55202 -1.14581
lowerneck -14.5428 -1.55122 0.738864
upperneck 21.5445 -3.00081 1.61624
head 9.18909 -1.26716 0.0496673
rclavicle -1.35174e-014 1.43125e-014
rhumerus -38.565 -7.07577 -79.2565
rradius 31.914
rwrist 18.0399
rhand -25.0979 -4.73215
rfingers 7.12502
rthumb 1.41701 -34.7072
lclavicle -1.35174e-014 1.43125e-014
lhumerus -37.4667 -10.4442 90.5868
lradius 40.6804
lwrist -3.85169
lhand -36.3839 -2.22106
lfingers 7.12502
lthumb -9.48023 27.5457
rfemur -32.3008 9.85291 19.9339
rtibia 23.7702
rfoot -6.36335 -18.8591
rtoes -4.76395
lfemur -24.4085 -0.0432685 -24.0318
ltibia 59.9547
lfoot -2.16743 4.47637
ltoes -18.6555
2099
root 4.53713 16.5525 -2.2733 -58.6008 -88.2319 74.2604
lowerback -5.69558 -0.416711 2.36383
upperback -3.99791 -0.755817 0.141938
thorax -0.949494 -0.465615 -1.21433
lowerneck -14.5632 -1.62056 0.816007
upperneck 21.5939 -3.12357 1.63285
head 9.20999 -1.31589 0.0270673
rclavicle 9.93923e-015 3.97569e-015
rhumerus -38.0593 -6.77287 -79.3019
rradius 31.8467
rwrist 18.0713
rhand -25.4019 -4.5652
rfingers 7.12502
rthumb 1.12339 -34.542
lclavicle 9.93923e-015 3.97569e-015
lhumerus -37.7051 -10.3197 90.684
lradius 40.4377
lwrist -3.8401
lhand -36.5514 -2.3123
lfingers 7.12502
lthumb -9.64183 27.447
rfemur -31.8008 9.6278 20.4613
rtibia 24.135
rfoot -7.07713 -18.7986
rtoes -4.83626
lfemur -25.9902 0.170962 -23.6523
ltibia 61.9719
lfoot -2.93656 4.68238
ltoes -17.8483
2100
root 4.5381 16.5485 -2.29167 -55.6396 -88.2618 71.2726
lowerback -5.68548 -0.281351 2.35189
upperback -3.93895 -0.572912 0.110197
thorax -0.887449 -0.371794 -1.23208
lowerneck -14.6096 -1.67921 0.907746
upperneck 21.6407 -3.2283 1.62403
head 9.23395 -1.35715 -0.00472199
rclavicle 3.18055e-015 -1.27222e-014
rhumerus -37.4972 -6.37084 -79.3956
rradius 31.8725
rwrist 17.7807
rhand -25.5853 -4.83717
rfingers 7.12502
rthumb 0.946288 -34.8148
lclavicle 3.18055e-015 -1.27222e-014
lhumerus -37.9239 -10.1919 90.7363
lradius 40.1672
lwrist -3.98805
lhand -36.6515 -2.32606
lfingers 7.12502
lthumb -9.73842 27.4288
rfemur -31.4131 9.40976 20.7851
rtibia 24.5463
rfoot -7.82433 -18.7216
rtoes -5.15922
lfemur -27.5454 0.248724 -23.4836
ltibia 63.6147
lfoot -3.7688 4.89654
ltoes -17.0203
2101
root 4.54023 16.541 -2.30942 -55.8312 -88.2597 71.497
lowerback -5.72502 -0.156252 2.24891
upperback -3.93045 -0.402559 0.0706292
thorax -0.84947 -0.284325 -1.20728
lowerneck -14.6448 -1.72728 0.892786
upperneck 21.7916 -3.32687 1.72526
head 9.29593 -1.39255 0.0188731
rclavicle 2.18663e-015 2.62396e-014
rhumerus -36.9909 -6.02115 -79.4254
rradius 31.9248
rwrist 17.7356
rhand -25.596 -4.92244
rfingers 7.12502
rthumb 0.935937 -34.9001
lclavicle 2.18663e-015 2.62396e-014
lhumerus -38.2251 -9.84397 90.7186
lradius 39.8844
lwrist -4.328
lhand -36.706 -2.29983
lfingers 7.12502
lthumb -9.79099 27.4526
rfemur -31.0831 9.34373 20.9843
rtibia 24.9431
rfoot -8.54374 -18.759
rtoes -5.26741
lfemur -29.1198 0.34743 -23.4344
ltibia 64.9547
lfoot -4.57236 5.15165
ltoes -16.4805
2102
root 4.54454 16.5392 -2.32767 -54.5263 -88.1699 70.1613
lowerback -5.65654 -0.066075 2.10105
upperback -3.93958 -0.273411 0.00385676
thorax -0.891417 -0.217798 -1.1864
lowerneck -14.5443 -1.77436 0.910335
upperneck 21.8662 -3.42121 1.79979
head 9.3051 -1.42866 0.0303612
rclavicle 1.44119e-015 8.74653e-015
rhumerus -36.4794 -5.82389 -79.3794
rradius 31.8399
rwrist 18.1666
rhand -25.701 -4.87641
rfingers 7.12502
rthumb 0.834566 -34.8545
lclavicle 1.44119e-015 8.74653e-015
lhumerus -38.6001 -9.55817 90.6768
lradius 39.6759
lwrist -4.38544
lhand -36.6117 -2.369
lfingers 7.12502
lthumb -9.70001 27.3876
rfemur -30.7132 9.30503 21.1093
rtibia 25.3593
rfoot -9.43069 -18.9277
rtoes -4.77947
lfemur -30.5734 0.267914 -23.4454
ltibia 65.9569
lfoot -5.34492 5.4276
ltoes -16.5937
2103
root 4.55003 16.5287 -2.34422 -54.7173 -88.0932 70.3624
lowerback -5.65984 0.0362075 1.96016
upperback -3.93708 -0.130695 -0.0722258
thorax -0.881475 -0.144162 -1.17883
lowerneck -14.4902 -1.82633 0.912819
upperneck 21.9304 -3.51281 1.85539
head 9.31918 -1.46584 0.0378752
rclavicle 1.98785e-015 3.18055e-015
rhumerus -35.9548 -5.78677 -79.3002
rradius 31.8335
rwrist 18.6548
rhand -25.6979 -5.06758
rfingers 7.12502
rthumb 0.837534 -35.0457
lclavicle 1.98785e-015 3.18055e-015
lhumerus -38.888 -9.17265 90.5952
lradius 39.4154
lwrist -4.42002
lhand -36.6368 -2.49012
lfingers 7.12502
lthumb -9.72424 27.2654
rfemur -30.3399 9.31755 21.1988
rtibia 25.7433
rfoot -10.0569 -19.0971
rtoes -4.87442
lfemur -32.0132 0.16406 -23.4927
ltibia 66.6941
lfoot -6.02301 5.65007
ltoes -16.3164
2104
root 4.55403 16.5238 -2.35883 -54.5764 -88.0478 70.128
lowerback -5.58723 0.119378 1.85386
upperback -3.8856 -0.0115472 -0.134553
thorax -0.86441 -0.0814418 -1.17757
lowerneck -14.4887 -1.85459 0.910198
upperneck 22.0216 -3.5782 1.93605
head 9.35308 -1.4875 0.0572651
rclavicle 1.78906e-015 2.42517e-014
rhumerus -35.1952 -5.75287 -79.2356
rradius 31.5621
rwrist 18.906
rhand -25.7448 -5.00137
rfingers 7.12502
rthumb 0.792223 -34.9796
lclavicle 1.78906e-015 2.42517e-014
lhumerus -39.2263 -8.86024 90.5223
lradius 39.2009
lwrist -4.3178
lhand -36.6546 -2.66109
lfingers 7.12502
lthumb -9.74145 27.0936
rfemur -29.8592 9.40832 21.3132
rtibia 26.0874
rfoot -10.6908 -19.3223
rtoes -5.39325
lfemur -33.2677 0.0149555 -23.5218
ltibia 67.1236
lfoot -6.90863 6.02606
ltoes -15.7559
2105
root 4.55931 16.518 -2.37201 -51.3036 -88.048 66.823
lowerback -5.56229 0.194075 1.88617
upperback -3.87779 0.0877677 -0.190876
thorax -0.866811 -0.0325684 -1.24889
lowerneck -14.4122 -1.88188 0.922424
upperneck 22.0972 -3.64401 2.01102
head 9.36723 -1.51021 0.073098
rclavicle -4.27387e-015 6.75868e-015
rhumerus -34.855 -5.97508 -79.0739
rradius 31.8792
rwrist 19.6486
rhand -25.6363 -5.04225
rfingers 7.12502
rthumb 0.896982 -35.0201
lclavicle -4.27387e-015 6.75868e-015
lhumerus -39.5799 -8.44115 90.3593
lradius 38.9388
lwrist -4.48942
lhand -36.6051 -2.84568
lfingers 7.12502
lthumb -9.69363 26.9113
rfemur -29.3853 9.48715 21.515
rtibia 26.3798
rfoot -11.4186 -19.6041
rtoes -5.46032
lfemur -34.5505 -0.233958 -23.4597
ltibia 67.2985
lfoot -7.70461 6.24377
ltoes -14.866
2106
root 4.56447 16.5133 -2.38425 -48.2895 -88.0445 63.7854
lowerback -5.53502 0.278786 1.93631
upperback -3.87255 0.199668 -0.263815
thorax -0.87234 0.0220106 -1.34675
lowerneck -14.3737 -1.92263 0.970175
upperneck 22.1782 -3.72519 2.0358
head 9.38878 -1.54183 0.0634806
rclavicle -1.98785e-015 1.59028e-015
rhumerus -34.2338 -5.79276 -79.1323
rradius 31.7942
rwrist 19.452
rhand -25.8104 -5.07482
rfingers 7.12502
rthumb 0.728891 -35.0533
lclavicle -1.98785e-015 1.59028e-015
lhumerus -39.9429 -8.26107 90.2482
lradius 38.7412
lwrist -4.43676
lhand -36.4989 -2.76937
lfingers 7.12502
lthumb -9.59114 26.9923
rfemur -28.8999 9.60564 21.6998
rtibia 26.6355
rfoot -12.1481 -19.8736
rtoes -5.19448
lfemur -35.7551 -0.543294 -23.3999
ltibia 67.1881
lfoot -8.63692 6.55597
ltoes -15.3796
2107
root 4.57078 16.5055 -2.39494 -46.8727 -87.9776 62.3468
lowerback -5.50381 0.341381 1.90033
upperback -3.86426 0.285872 -0.346958
thorax -0.877661 0.0652901 -1.40805
lowerneck -14.3748 -1.95706 1.021
upperneck 22.2527 -3.78961 2.02868
head 9.41449 -1.56804 0.0440686
rclavicle 3.97569e-015 7.15625e-015
rhumerus -33.6436 -5.70431 -79.1308
rradius 31.7645
rwrist 19.6227
rhand -25.8927 -5.19812
rfingers 7.12502
rthumb 0.649421 -35.1769
lclavicle 3.97569e-015 7.15625e-015
lhumerus -40.306 -7.91417 90.084
lradius 38.5676
lwrist -4.48514
lhand -36.5166 -2.86976
lfingers 7.12502
lthumb -9.60831 26.8911
rfemur -28.4033 9.71476 21.7935
rtibia 26.8507
rfoot -12.6539 -20.1345
rtoes -5.4707
lfemur -36.8674 -0.887392 -23.4471
ltibia 66.7932
lfoot -9.44551 6.87152
ltoes -15.1576
2108
root 4.57841 16.4983 -2.40407 -43.7401 -87.9784 59.1697
lowerback -5.4347 0.415525 1.97253
upperback -3.85054 0.384178 -0.404018
thorax -0.897517 0.11299 -1.5029
lowerneck -14.4121 -2.00179 1.04181
upperneck 22.343 -3.86387 2.02907
head 9.45328 -1.59965 0.0304579
rclavicle 7.95139e-016 -1.70955e-014
rhumerus -33.0625 -5.61567 -79.1287
rradius 31.7622
rwrist 19.4799
rhand -26.0006 -5.17978
rfingers 7.12502
rthumb 0.545165 -35.1588
lclavicle 7.95139e-016 -1.70955e-014
lhumerus -40.647 -7.78861 90.0064
lradius 38.3329
lwrist -4.47163
lhand -36.5621 -2.77027
lfingers 7.12502
lthumb -9.65213 26.9886
rfemur -27.8749 9.90608 21.9666
rtibia 27.0462
rfoot -13.3637 -20.3786
rtoes -5.07891
lfemur -37.92 -1.28304 -23.3907
ltibia 66.151
lfoot -10.1177 7.28734
ltoes -14.6146
2109
root 4.58478 16.4904 -2.41194 -40.3697 -87.9629 55.7234
lowerback -5.33583 0.479032 2.05801
upperback -3.832 0.468831 -0.461528
thorax -0.929043 0.153664 -1.60661
lowerneck -14.4083 -2.04748 1.01956
upperneck 22.3646 -3.932 2.06392
head 9.46188 -1.62913 0.0376579
rclavicle 8.74653e-015 -7.15625e-015
rhumerus -32.4888 -5.41219 -79.1904
rradius 31.8342
rwrist 19.1868
rhand -26.1202 -5.28417
rfingers 7.12502
rthumb 0.429661 -35.2635
lclavicle 8.74653e-015 -7.15625e-015
lhumerus -41.0008 -7.55933 89.8695
lradius 38.1361
lwrist -4.47576
lhand -36.6183 -2.87626
lfingers 7.12502
lthumb -9.70639 26.8801
rfemur -27.3482 10.075 22.1501
rtibia 27.281
rfoot -13.9683 -20.8265
rtoes -5.38342
lfemur -38.816 -1.76196 -23.3123
ltibia 65.2324
lfoot -10.7953 7.72866
ltoes -14.2493
2110
root 4.58956 16.4843 -2.41807 -38.5294 -87.8774 53.9168
lowerback -5.36822 0.545742 2.08106
upperback -3.83711 0.555785 -0.553958
thorax -0.91162 0.195817 -1.71047
lowerneck -14.4351 -2.10377 0.986139
upperneck 22.3994 -4.01668 2.11257
head 9.48159 -1.66507 0.0489274
rclavicle 1.98785e-015 -1.90833e-014
rhumerus -31.9731 -5.21867 -79.2315
rradius 31.9316
rwrist 19.1471
rhand -26.1598 -5.39883
rfingers 7.12502
rthumb 0.391394 -35.3782
lclavicle 1.98785e-015 -1.90833e-014
lhumerus -41.3328 -7.38323 89.7383
lradius 37.9216
lwrist -4.53567
lhand -36.6355 -2.87781
lfingers 7.12502
lthumb -9.72294 26.8778
rfemur -26.9049 10.1653 22.2397
rtibia 27.4921
rfoot -14.738 -21.1211
rtoes -4.8078
lfemur -39.7255 -2.27228 -23.3234
ltibia 64.0528
lfoot -11.36 8.15243
ltoes -14.0279
2111
root 4.59845 16.4703 -2.42184 -37.4612 -87.829 52.9941
lowerback -5.44022 0.63983 2.11445
upperback -3.90136 0.676008 -0.64741
thorax -0.931146 0.252429 -1.81955
lowerneck -14.4523 -2.15798 1.0055
upperneck 22.4042 -4.08959 2.08445
head 9.48588 -1.69974 0.0268304
rclavicle -3.97569e-015 4.77083e-015
rhumerus -31.4987 -4.97425 -79.2819
rradius 32.0433
rwrist 18.867
rhand -26.2459 -5.32922
rfingers 7.12502
rthumb 0.308285 -35.3087
lclavicle -3.97569e-015 4.77083e-015
lhumerus -41.7055 -7.32564 89.6478
lradius 37.7245
lwrist -4.47284
lhand -36.6502 -2.86401
lfingers 7.12502
lthumb -9.73713 26.8909
rfemur -26.6256 10.2846 22.3022
rtibia 27.7185
rfoot -14.9894 -21.3799
rtoes -6.03228
lfemur -40.7053 -2.74831 -23.3609
ltibia 62.6465
lfoot -11.7719 8.7448
ltoes -14.4068
